<svg xmlns="http://www.w3.org/2000/svg" width="1200" height="800" viewBox="0 0 1200 800">
  <defs>
    <linearGradient id="g" x1="0" y1="0" x2="1" y2="1">
      <stop offset="0%" stop-color="#e5e7eb"/>
      <stop offset="100%" stop-color="#f3f4f6"/>
    </linearGradient>
  </defs>
  <rect width="1200" height="800" fill="url(#g)"/>
  <g transform="translate(150,100)">
    <rect x="0" y="0" width="900" height="600" rx="16" fill="#ffffff" stroke="#d1d5db"/>
    <rect x="60" y="60" width="300" height="24" rx="4" fill="#e5e7eb"/>
    <rect x="60" y="110" width="500" height="14" rx="3" fill="#eef2f7"/>
    <rect x="60" y="140" width="460" height="14" rx="3" fill="#eef2f7"/>
    <rect x="60" y="170" width="520" height="14" rx="3" fill="#eef2f7"/>
    <rect x="60" y="220" width="780" height="12" rx="3" fill="#f1f5f9"/>
    <rect x="60" y="245" width="740" height="12" rx="3" fill="#f1f5f9"/>
    <rect x="60" y="270" width="760" height="12" rx="3" fill="#f1f5f9"/>
    <rect x="60" y="320" width="680" height="12" rx="3" fill="#f1f5f9"/>
    <rect x="60" y="345" width="700" height="12" rx="3" fill="#f1f5f9"/>
    <rect x="60" y="370" width="650" height="12" rx="3" fill="#f1f5f9"/>
    <rect x="720" y="60" width="120" height="120" rx="8" fill="#e5e7eb"/>
    <rect x="720" y="200" width="180" height="40" rx="8" fill="#e5e7eb"/>
  </g>
</svg>
